# xmcd
#
# Track frame offsets: 
#        150
#        17707
#        33866
#        59626
#        74115
#        90622
#        106664
#        126339
#        146727
#        163501
#        179415
#        198391
#
# Disc length: 2856 seconds
#
# Revision: 0
# Processed by: cddbd v1.5.2PL0 Copyright (c) Steve Scherf et al.
# Submitted via: ExactAudioCopy v0.99pb4
#
DISCID=ad0b260c
DTITLE=John Mayall and Sonny Boy Williamson - Transatlantic Blues disc
DTITLE=2
DYEAR=2009
DGENRE=
TTITLE0=Room To Move
TTITLE1=It Ain't Right
TTITLE2=Wild About You
TTITLE3=I Ain't Got You
TTITLE4=All Your Love
TTITLE5=Racehorse Man
TTITLE6=Help Me
TTITLE7=Ridin' On The AL and N
TTITLE8=Cold Blooded Woman
TTITLE9=Dirty Dozen
TTITLE10=Dream About The Blues
TTITLE11=Rolling With The Blues
EXTD=
EXTT0=
EXTT1=
EXTT2=
EXTT3=
EXTT4=
EXTT5=
EXTT6=
EXTT7=
EXTT8=
EXTT9=
EXTT10=
EXTT11=
PLAYORDER=
